<svg width="669" height="121" viewBox="0 0 669 121" fill="none" xmlns="http://www.w3.org/2000/svg">
<path d="M18.9794 0.15625H0V120.373H18.9794V0.15625Z" fill="#352828"/>
<path d="M155.667 0.15625H136.688V120.373H155.667V0.15625Z" fill="#352828"/>
<path d="M535.455 120.373H511.785L456.639 0.15625H480.304L535.455 120.373Z" fill="#352828"/>
<path d="M371.907 57.6961V0.15625H352.928V33.5449L371.907 57.6961Z" fill="#352828"/>
<path d="M75.0063 18.0873L93.2177 0.15625H56.7949L75.0063 18.0873Z" fill="#352828"/>
<path d="M75.0063 102.434L56.7949 120.365H93.2177L75.0063 102.434Z" fill="#352828"/>
<path d="M276.178 102.434L257.967 120.365H294.39L276.178 102.434Z" fill="#352828"/>
<path d="M420.188 102.434L401.977 120.365H438.399L420.188 102.434Z" fill="#352828"/>
<path d="M583.248 102.434L565.037 120.365H601.46L583.248 102.434Z" fill="#352828"/>
<path d="M650.79 18.0873L669.001 0.15625H632.578L650.79 18.0873Z" fill="#352828"/>
<path d="M447.891 76.0248L466.102 58.0938H429.68L447.891 76.0248Z" fill="#352828"/>
<path d="M66.9252 60.2611L48.9004 42.1445V78.3778L66.9252 60.2611Z" fill="#352828"/>
<path d="M276.178 0.15625V30.6528L347.622 120.373H371.908L276.178 0.15625Z" fill="#352828"/>
<path d="M589.737 0.15625C589.737 0.15625 569.334 0.333237 568.874 25.8744C568.349 55.0284 631.462 63.5623 639.624 96.6747C643.664 113.065 639.416 120.377 639.416 120.377C639.416 120.377 659.645 117.973 661.463 93.7221C664.114 58.3565 593.26 41.1766 588.761 18.3419C586.383 6.26851 589.737 0.15625 589.737 0.15625Z" fill="#352828"/>
<path d="M188.389 0C188.389 0 247.349 9.20724 246.16 60.8722C246.16 105.67 205.975 120.372 205.975 120.372C205.975 120.372 232.04 97.904 227.762 55.5153C223.484 13.1224 188.389 0 188.389 0Z" fill="#352828"/>
</svg>
